<svg width="198" height="32" viewBox="0 0 198 32" fill="none" xmlns="http://www.w3.org/2000/svg">
<path d="M20.422 18.6776C18.4382 18.6776 16.8301 17.0577 16.8301 15.0595C16.8301 13.0613 18.4382 11.4414 20.422 11.4414C22.4058 11.4414 24.0139 13.0613 24.0139 15.0595C24.0139 17.0577 22.4058 18.6776 20.422 18.6776Z" fill="#4C4C4C"/>
<path d="M22.1413 15.8485C22.1413 18.0541 21.492 20.2101 20.2756 22.044C19.0591 23.8778 17.3301 25.3071 15.3072 26.1511C13.2843 26.9952 11.0584 27.216 8.91088 26.7857C6.76339 26.3554 4.79078 25.2934 3.24253 23.7338C1.69427 22.1742 0.639889 20.1873 0.212725 18.0241C-0.214439 15.8609 0.00479648 13.6187 0.842708 11.5811C1.68062 9.5434 3.09957 7.80178 4.92013 6.57644C6.74069 5.35111 8.88109 4.69708 11.0707 4.69708V8.6138C9.65013 8.6138 8.2615 9.03811 7.08038 9.83307C5.89925 10.628 4.97867 11.7579 4.43506 13.0799C3.89145 14.4019 3.74922 15.8566 4.02635 17.26C4.30348 18.6634 4.98753 19.9525 5.99199 20.9643C6.99646 21.9761 8.27623 22.6651 9.66946 22.9443C11.0627 23.2234 12.5068 23.0801 13.8192 22.5326C15.1316 21.985 16.2533 21.0577 17.0425 19.8679C17.8317 18.6782 18.253 17.2794 18.253 15.8485H22.1413Z" fill="#4C4C4C"/>
<path d="M11.578 12.3224C13.5618 12.3224 15.1699 13.9423 15.1699 15.9405C15.1699 17.9387 13.5618 19.5586 11.578 19.5586C9.59424 19.5586 7.98608 17.9387 7.98608 15.9405C7.98608 13.9423 9.59424 12.3224 11.578 12.3224Z" fill="#4C4C4C"/>
<path d="M9.85869 15.1515C9.85869 12.9459 10.508 10.7899 11.7244 8.95604C12.9409 7.1222 14.6699 5.69289 16.6928 4.84886C18.7157 4.00483 20.9416 3.784 23.0891 4.21428C25.2366 4.64456 27.2092 5.70663 28.7575 7.26619C30.3057 8.82575 31.3601 10.8127 31.7873 12.9759C32.2144 15.1391 31.9952 17.3813 31.1573 19.4189C30.3194 21.4566 28.9004 23.1982 27.0799 24.4236C25.2593 25.6489 23.1189 26.3029 20.9293 26.3029V22.3862C22.3499 22.3862 23.7385 21.9619 24.9196 21.1669C26.1007 20.372 27.0213 19.2421 27.5649 17.9201C28.1086 16.5981 28.2508 15.1434 27.9737 13.74C27.6965 12.3366 27.0125 11.0475 26.008 10.0357C25.0035 9.02393 23.7238 8.33489 22.3305 8.05574C20.9373 7.77658 19.4932 7.91985 18.1808 8.46743C16.8684 9.01501 15.7467 9.94231 14.9575 11.1321C14.1683 12.3218 13.747 13.7206 13.747 15.1515L9.85869 15.1515Z" fill="#4C4C4C"/>
<path d="M49.9858 11.5653C49.9176 10.8778 49.625 10.3437 49.108 9.96307C48.5909 9.58239 47.8892 9.39204 47.0028 9.39204C46.4006 9.39204 45.892 9.47727 45.4773 9.64773C45.0625 9.8125 44.7443 10.0426 44.5227 10.3381C44.3068 10.6335 44.1989 10.9688 44.1989 11.3438C44.1875 11.6562 44.2528 11.929 44.3949 12.1619C44.5426 12.3949 44.7443 12.5966 45 12.767C45.2557 12.9318 45.5511 13.0767 45.8864 13.2017C46.2216 13.321 46.5795 13.4233 46.9602 13.5085L48.5284 13.8835C49.2898 14.054 49.9886 14.2812 50.625 14.5653C51.2614 14.8494 51.8125 15.1989 52.2784 15.6136C52.7443 16.0284 53.1051 16.517 53.3608 17.0795C53.6222 17.642 53.7557 18.2869 53.7614 19.0142C53.7557 20.0824 53.483 21.0085 52.9432 21.7926C52.4091 22.571 51.6364 23.1761 50.625 23.608C49.6193 24.0341 48.4063 24.2472 46.9858 24.2472C45.5767 24.2472 44.3494 24.0312 43.304 23.5994C42.2642 23.1676 41.4517 22.5284 40.8665 21.6818C40.2869 20.8295 39.983 19.7756 39.9545 18.5199H43.5256C43.5653 19.1051 43.733 19.5937 44.0284 19.9858C44.3295 20.3722 44.7301 20.6648 45.2301 20.8636C45.7358 21.0568 46.3068 21.1534 46.9432 21.1534C47.5682 21.1534 48.1108 21.0625 48.571 20.8807C49.0369 20.6989 49.3977 20.446 49.6534 20.1222C49.9091 19.7983 50.0369 19.4261 50.0369 19.0057C50.0369 18.6136 49.9205 18.2841 49.6875 18.017C49.4602 17.75 49.125 17.5227 48.6818 17.3352C48.2443 17.1477 47.7074 16.9773 47.071 16.8239L45.1705 16.3466C43.6989 15.9886 42.5369 15.429 41.6847 14.6676C40.8324 13.9062 40.4091 12.8807 40.4148 11.5909C40.4091 10.5341 40.6903 9.6108 41.2585 8.82102C41.8324 8.03125 42.6193 7.41477 43.6193 6.97159C44.6193 6.52841 45.7557 6.30682 47.0284 6.30682C48.3239 6.30682 49.4545 6.52841 50.4205 6.97159C51.392 7.41477 52.1477 8.03125 52.6875 8.82102C53.2273 9.6108 53.5057 10.5256 53.5227 11.5653H49.9858ZM78.043 6.54545V24H74.8555L67.2618 13.0142H67.1339V24H63.4436V6.54545H66.6822L74.2163 17.5227H74.3697V6.54545H78.043ZM91.3006 24H87.346L93.3716 6.54545H98.1273L104.144 24H100.19L95.8176 10.5341H95.6813L91.3006 24ZM91.0534 17.1392H100.394V20.0199H91.0534V17.1392ZM113.445 24V6.54545H120.332C121.655 6.54545 122.783 6.7983 123.715 7.30398C124.647 7.80398 125.357 8.5 125.846 9.39204C126.34 10.2784 126.587 11.3011 126.587 12.4602C126.587 13.6193 126.337 14.642 125.837 15.5284C125.337 16.4148 124.613 17.1051 123.664 17.5994C122.721 18.0937 121.579 18.3409 120.238 18.3409H115.849V15.3835H119.641C120.351 15.3835 120.937 15.2614 121.397 15.017C121.863 14.767 122.209 14.4233 122.437 13.9858C122.67 13.5426 122.786 13.0341 122.786 12.4602C122.786 11.8807 122.67 11.375 122.437 10.9432C122.209 10.5057 121.863 10.1676 121.397 9.92898C120.931 9.68466 120.34 9.5625 119.624 9.5625H117.136V24H113.445ZM145.653 11.5653C145.585 10.8778 145.292 10.3437 144.775 9.96307C144.258 9.58239 143.556 9.39204 142.67 9.39204C142.068 9.39204 141.559 9.47727 141.144 9.64773C140.73 9.8125 140.412 10.0426 140.19 10.3381C139.974 10.6335 139.866 10.9688 139.866 11.3438C139.855 11.6562 139.92 11.929 140.062 12.1619C140.21 12.3949 140.412 12.5966 140.667 12.767C140.923 12.9318 141.218 13.0767 141.554 13.2017C141.889 13.321 142.247 13.4233 142.627 13.5085L144.196 13.8835C144.957 14.054 145.656 14.2812 146.292 14.5653C146.929 14.8494 147.48 15.1989 147.946 15.6136C148.412 16.0284 148.772 16.517 149.028 17.0795C149.289 17.642 149.423 18.2869 149.429 19.0142C149.423 20.0824 149.15 21.0085 148.61 21.7926C148.076 22.571 147.304 23.1761 146.292 23.608C145.287 24.0341 144.073 24.2472 142.653 24.2472C141.244 24.2472 140.017 24.0312 138.971 23.5994C137.931 23.1676 137.119 22.5284 136.534 21.6818C135.954 20.8295 135.65 19.7756 135.622 18.5199H139.193C139.233 19.1051 139.4 19.5937 139.696 19.9858C139.997 20.3722 140.397 20.6648 140.897 20.8636C141.403 21.0568 141.974 21.1534 142.61 21.1534C143.235 21.1534 143.778 21.0625 144.238 20.8807C144.704 20.6989 145.065 20.446 145.321 20.1222C145.576 19.7983 145.704 19.4261 145.704 19.0057C145.704 18.6136 145.588 18.2841 145.355 18.017C145.127 17.75 144.792 17.5227 144.349 17.3352C143.912 17.1477 143.375 16.9773 142.738 16.8239L140.838 16.3466C139.366 15.9886 138.204 15.429 137.352 14.6676C136.5 13.9062 136.076 12.8807 136.082 11.5909C136.076 10.5341 136.358 9.6108 136.926 8.82102C137.5 8.03125 138.287 7.41477 139.287 6.97159C140.287 6.52841 141.423 6.30682 142.696 6.30682C143.991 6.30682 145.122 6.52841 146.088 6.97159C147.059 7.41477 147.815 8.03125 148.355 8.82102C148.894 9.6108 149.173 10.5256 149.19 11.5653H145.653ZM159.111 24V6.54545H170.872V9.58807H162.801V13.7472H170.267V16.7898H162.801V20.9574H170.906V24H159.111ZM196.407 12.6562H192.674C192.606 12.1733 192.466 11.7443 192.256 11.3693C192.046 10.9886 191.776 10.6648 191.446 10.3977C191.117 10.1307 190.736 9.92614 190.304 9.78409C189.878 9.64205 189.415 9.57102 188.915 9.57102C188.012 9.57102 187.225 9.79545 186.554 10.2443C185.884 10.6875 185.364 11.3352 184.995 12.1875C184.625 13.0341 184.441 14.0625 184.441 15.2727C184.441 16.517 184.625 17.5625 184.995 18.4091C185.37 19.2557 185.892 19.8949 186.563 20.3267C187.233 20.7585 188.009 20.9744 188.89 20.9744C189.384 20.9744 189.841 20.9091 190.262 20.7784C190.688 20.6477 191.066 20.4574 191.395 20.2074C191.725 19.9517 191.998 19.642 192.213 19.2784C192.435 18.9148 192.588 18.5 192.674 18.0341L196.407 18.0511C196.31 18.8523 196.069 19.625 195.682 20.3693C195.302 21.108 194.787 21.7699 194.14 22.3551C193.498 22.9347 192.731 23.3949 191.838 23.7358C190.952 24.071 189.949 24.2386 188.83 24.2386C187.273 24.2386 185.881 23.8864 184.654 23.1818C183.432 22.4773 182.466 21.4574 181.756 20.1222C181.052 18.7869 180.699 17.1705 180.699 15.2727C180.699 13.3693 181.057 11.75 181.773 10.4148C182.489 9.07955 183.461 8.0625 184.688 7.36364C185.915 6.65909 187.296 6.30682 188.83 6.30682C189.841 6.30682 190.779 6.44886 191.642 6.73295C192.512 7.01705 193.282 7.43182 193.952 7.97727C194.623 8.51704 195.168 9.17898 195.588 9.96307C196.015 10.7472 196.287 11.6449 196.407 12.6562Z" fill="#4C4C4C"/>
</svg>
